<svg xmlns="http://www.w3.org/2000/svg" width="1200" height="630" viewBox="0 0 1200 630">
  <defs>
    <linearGradient id="bg" x1="0" y1="0" x2="1" y2="1">
      <stop offset="0%" stop-color="#0a0a0f"/>
      <stop offset="50%" stop-color="#0d1117"/>
      <stop offset="100%" stop-color="#0a0a0f"/>
    </linearGradient>
    <linearGradient id="accent1" x1="0" y1="0" x2="1" y2="1">
      <stop offset="0%" stop-color="#00ff88" stop-opacity="0.15"/>
      <stop offset="100%" stop-color="#00d4ff" stop-opacity="0.05"/>
    </linearGradient>
    <linearGradient id="accent2" x1="0" y1="0" x2="1" y2="0">
      <stop offset="0%" stop-color="#00ff88" stop-opacity="0.3"/>
      <stop offset="100%" stop-color="#00d4ff" stop-opacity="0.1"/>
    </linearGradient>
    <pattern id="grid" width="40" height="40" patternUnits="userSpaceOnUse">
      <path d="M 40 0 L 0 0 0 40" fill="none" stroke="#00ff88" stroke-opacity="0.04" stroke-width="0.5"/>
    </pattern>
  </defs>
  <rect width="1200" height="630" fill="url(#bg)"/>
  <rect width="1200" height="630" fill="url(#grid)"/>
  <rect x="60" y="60" width="1080" height="510" rx="16" fill="none" stroke="url(#accent2)" stroke-width="1"/>
  <circle cx="200" cy="180" r="180" fill="url(#accent1)"/>
  <circle cx="900" cy="450" r="220" fill="url(#accent1)"/>
  <circle cx="600" cy="315" r="120" fill="none" stroke="#00ff88" stroke-opacity="0.08" stroke-width="1"/>
  <path d="M 520 315 L 540 295 L 560 315 L 580 305 L 600 325 L 620 310 L 640 330 L 660 315" fill="none" stroke="#00ff88" stroke-opacity="0.15" stroke-width="1.5"/>
  <text x="600" y="280" font-family="JetBrains Mono, monospace" font-size="14" fill="#00ff88" text-anchor="middle" opacity="0.4">$ /ai-first/article</text>
  <text x="600" y="360" font-family="Inter, system-ui, sans-serif" font-size="32" fill="#e1e1e6" text-anchor="middle" font-weight="700" opacity="0.6">AI First</text>
  <text x="600" y="400" font-family="JetBrains Mono, monospace" font-size="12" fill="#888" text-anchor="middle" opacity="0.4">Engineering AI Lead</text>
</svg>
